:SAMPLES-PER-SECOND 24
:FULLY-SPECIFIED
:DEGREES
103
root  4.31833 40.2848 42.8654 -37.6846 -6.9259 16.9387
RightUpLeg  10.9384 10.8425 -8.70388
RightLeg  40.8235 3.6562 3.09339
RightFoot  5.50549 1.4929 -9.79406
RightToes  -2.08645e-008 3.77894e-005 6.81332e-007
Spine  20.4496 3.6114 2.49386
Spine1  15.0469 10.1523 -19.4272
HEad  -13.4751 -27.474 0.348941
LeftShoulder1  7.57976 -13.1967 -39.2264
LeftArm  -7.96384 19.7731 -24.6953
LeftForeArm  173.192 -52.357 -167.194
LeftHand  -0.238209 -1.39123 4.26677
RightShoulder  4.28564 7.04355 34.7346
RightArm  26.2641 5.35219 30.52
RightForeArm  35.332 66.5541 22.7909
RightHand  -0.128756 9.09774 -1.42354
LeftUpLeg  -70.6755 16.1195 11.1215
LeftLeg  10.4582 12.2944 1.74517
LeftFoot  -4.01683 1.23091 -18.7136
LeftToes  1.24767e-006 1.47042e-008 1.32732e-009
104
root  4.50395 40.2224 42.8169 -37.1772 -7.04401 16.1962
RightUpLeg  9.64251 9.34612 -9.09558
RightLeg  41.7769 4.41467 3.92227
RightFoot  6.10516 1.5732 -9.94544
RightToes  -2.08645e-008 3.77894e-005 6.81332e-007
Spine  18.6261 3.41707 1.37792
Spine1  16.5807 9.16996 -17.2773
HEad  -16.995 -28.2876 2.48355
LeftShoulder1  7.97432 -13.609 -40.3758
LeftArm  -9.0918 19.7424 -24.7831
LeftForeArm  171.684 -53.9703 -166.337
LeftHand  -0.231477 -1.20765 4.20741
RightShoulder  4.3925 7.10161 35.5079
RightArm  23.8039 3.27568 30.176
RightForeArm  36.1386 67.2261 23.5881
RightHand  -0.232862 8.82157 -2.28389
LeftUpLeg  -65.4449 12.6526 13.9508
LeftLeg  11.9128 10.4544 2.82966
LeftFoot  -4.69257 1.02432 -17.0389
LeftToes  1.24767e-006 1.47042e-008 1.32732e-009
105
root  4.62177 40.2742 42.7839 -35.5905 -7.12506 14.5428
RightUpLeg  8.71434 7.61799 -8.46074
RightLeg  40.7752 5.13377 4.44138
RightFoot  6.38962 1.67404 -10.4137
RightToes  -2.08645e-008 3.77894e-005 6.81332e-007
Spine  16.0342 3.33561 0.0560458
Spine1  17.497 7.56018 -13.6944
HEad  -20.3751 -29.2491 5.38133
LeftShoulder1  8.16311 -13.8082 -40.8969
LeftArm  -8.8372 19.4767 -24.6161
LeftForeArm  170.811 -55.6778 -165.417
LeftHand  -0.240235 -1.67833 4.11468
RightShoulder  4.48169 7.14496 36.1634
RightArm  21.4281 -0.444815 29.8338
RightForeArm  37.3334 68.2561 24.9283
RightHand  -0.128123 8.91652 -1.42802
LeftUpLeg  -60.8694 12.2474 11.2995
LeftLeg  16.3213 3.93175 1.60171
LeftFoot  -3.42546 1.36922 -19.3155
LeftToes  1.24767e-006 1.47042e-008 1.32732e-009
106
root  4.75022 40.3789 42.5708 -32.8199 -7.2164 12.2487
RightUpLeg  7.38247 6.2986 -6.78222
RightLeg  38.1435 5.45991 4.31335
RightFoot  6.55375 1.64424 -10.1211
RightToes  -2.08645e-008 3.77894e-005 6.81332e-007
Spine  13.4719 2.75032 -0.742226
Spine1  17.7094 5.74873 -10.3421
HEad  -23.3972 -30.1043 8.51704
LeftShoulder1  8.233 -13.8786 -41.0947
LeftArm  -7.26762 19.3785 -24.1232
LeftForeArm  170.981 -57.1349 -164.645
LeftHand  -0.255212 -2.23844 4.08357
RightShoulder  4.55463 7.17668 36.7075
RightArm  19.5228 -5.73769 29.6042
RightForeArm  39.2229 69.5496 26.7887
RightHand  -0.0745758 9.11786 -0.990419
LeftUpLeg  -54.4509 12.5031 8.56238
LeftLeg  18.9061 4.92619 2.19638
LeftFoot  -3.52204 1.4513 -20.7364
LeftToes  1.24767e-006 1.47042e-008 1.32732e-009
107
root  4.96834 40.4987 42.2064 -29.505 -7.21445 10.1354
RightUpLeg  5.07716 5.56716 -5.24581
RightLeg  35.4261 5.51447 3.94341
RightFoot  7.34441 1.57558 -9.24231
RightToes  -2.08645e-008 3.77894e-005 6.81332e-007
Spine  11.7605 1.76966 -1.58471
Spine1  16.6869 3.71939 -7.34972
HEad  -26.3762 -30.6132 11.6788
LeftShoulder1  8.13677 -13.7985 -40.778
LeftArm  -4.79825 19.9922 -24.4861
LeftForeArm  172.247 -58.2499 -164.111
LeftHand  -0.228651 -2.11813 3.72703
RightShoulder  4.59046 7.1865 36.9957
RightArm  18.2909 -11.8458 29.0609
RightForeArm  41.9438 71.1517 29.4905
RightHand  -0.112345 8.9713 -1.2984
LeftUpLeg  -46.815 12.5265 6.52574
LeftLeg  21.8398 10.5376 4.93415
LeftFoot  -3.7005 1.33003 -19.4251
LeftToes  1.24767e-006 1.47042e-008 1.32732e-009
108
root  5.28249 40.5726 41.8177 -26.0793 -7.32379 8.14148
RightUpLeg  2.38156 5.03484 -4.0288
RightLeg  32.8529 5.93796 3.8652
RightFoot  8.18878 1.574 -8.79389
RightToes  -2.08645e-008 3.77894e-005 6.81332e-007
Spine  10.8438 0.573486 -2.70578
Spine1  14.4052 1.26758 -3.59241
HEad  -29.1105 -30.1435 14.3731
LeftShoulder1  7.9215 -13.6305 -40.0276
LeftArm  -2.74468 21.7654 -26.2101
LeftForeArm  173.134 -59.3351 -163.527
LeftHand  -0.180521 -1.88674 3.05866
RightShoulder  4.52358 7.12481 36.6258
RightArm  17.8835 -17.8785 27.8716
RightForeArm  45.5087 73.0796 33.6517
RightHand  -0.0475621 8.99049 -0.776342
LeftUpLeg  -38.5428 11.8551 5.77702
LeftLeg  26.704 12.3958 7.002
LeftFoot  -3.45225 1.34321 -19.0283
LeftToes  1.24767e-006 1.47042e-008 1.32732e-009
109
root  5.65591 40.5282 41.342 -22.4573 -8.34824 6.50262
RightUpLeg  -1.08849 5.38978 -2.9476
RightLeg  30.7114 6.87052 4.14657
RightFoot  8.75644 1.45028 -7.8265
RightToes  -2.08645e-008 3.77894e-005 6.81332e-007
Spine  10.0776 -0.623394 -4.14127
Spine1  11.9398 -1.04337 0.529258
HEad  -30.8509 -27.92 16.1206
LeftShoulder1  7.83974 -13.6013 -39.649
LeftArm  -2.029 23.9679 -27.7849
LeftForeArm  172.369 -60.4744 -162.721
LeftHand  -0.162929 -2.2787 2.66611
RightShoulder  4.38849 7.0093 35.8276
RightArm  18.6385 -22.7812 25.9821
RightForeArm  50.2581 74.9853 39.08
RightHand  0.0273528 8.88993 -0.169425
LeftUpLeg  -29.5343 10.3315 6.2563
LeftLeg  32.5294 11.293 7.99428
LeftFoot  -3.32126 1.34476 -18.7547
LeftToes  1.24767e-006 1.47042e-008 1.32732e-009
110
root  6.06089 40.435 40.7836 -18.7559 -10.4941 5.56458
RightUpLeg  -5.30484 7.26368 -2.27438
RightLeg  28.9313 7.59513 4.2897
RightFoot  9.48852 1.23218 -6.33921
RightToes  -2.08645e-008 3.77894e-005 6.81332e-007
Spine  7.77162 -1.89112 -5.86357
Spine1  11.2363 -2.95347 3.56932
HEad  -30.7785 -23.3985 16.5111
LeftShoulder1  7.79262 -13.5915 -39.4115
LeftArm  -1.88057 25.3706 -28.2755
LeftForeArm  171.438 -61.3654 -162.021
LeftHand  -0.167562 -2.58019 2.65224
RightShoulder  4.26686 6.91265 35.0615
RightArm  20.4053 -25.6965 24.0879
RightForeArm  54.6874 76.2396 43.6811
RightHand  0.0166404 8.90204 -0.25717
LeftUpLeg  -19.6564 9.49777 6.28217
LeftLeg  37.8622 11.2025 9.5685
LeftFoot  -3.06361 1.31139 -17.747
LeftToes  1.24767e-006 1.47042e-008 1.32732e-009
111
root  6.49095 40.3632 40.1955 -15.1576 -12.1152 4.18256
RightUpLeg  -8.77781 9.015 -1.54729
RightLeg  26.125 8.1343 4.09639
RightFoot  10.6216 1.16764 -5.63195
RightToes  -2.08645e-008 3.77894e-005 6.81332e-007
Spine  3.83277 -3.88023 -7.02193
Spine1  12.1542 -5.3455 5.50144
HEad  -28.327 -16.3114 15.1017
LeftShoulder1  7.7227 -13.5229 -39.1955
LeftArm  -1.0788 25.2446 -27.746
LeftForeArm  171.2 -61.8996 -161.614
LeftHand  -0.172942 -2.27372 2.77228
RightShoulder  4.19095 6.85953 34.5459
RightArm  21.7987 -27.6462 22.3409
RightForeArm  60.2041 77.4626 49.6753
RightHand  0.0773904 8.92063 0.233237
LeftUpLeg  -8.69505 9.39504 6.28752
LeftLeg  39.9082 12.0797 10.9892
LeftFoot  -1.71814 1.46736 -17.2016
LeftToes  1.24767e-006 1.47042e-008 1.32732e-009
112
root  6.9077 40.1819 39.4576 -10.9164 -11.069 1.76648
RightUpLeg  -12.639 8.91313 -0.778099
RightLeg  23.263 8.45205 3.7514
RightFoot  11.8854 0.930735 -4.1317
RightToes  -2.08645e-008 3.77894e-005 6.81332e-007
Spine  0.538724 -6.39504 -9.20226
Spine1  11.5684 -8.87708 9.3649
HEad  -24.4736 -7.43049 12.9015
LeftShoulder1  7.8832 -13.6294 -39.8177
LeftArm  0.613874 23.1878 -26.5599
LeftForeArm  171.21 -62.379 -161.258
LeftHand  -0.175726 -2.26286 2.86462
RightShoulder  4.19609 6.8549 34.6128
RightArm  21.3705 -30.588 20.0867
RightForeArm  73.1409 79.2226 63.4491
RightHand  0.0490535 9.03714 -0.000352977
LeftUpLeg  0.837236 8.87274 7.25134
LeftLeg  37.5849 13.3705 11.164
LeftFoot  1.01581 1.48276 -13.7445
LeftToes  1.24767e-006 1.47042e-008 1.32732e-009
113
root  7.25017 39.7081 38.3765 -5.94482 -6.34326 -0.296631
RightUpLeg  -18.9029 7.23473 -1.43287
RightLeg  22.7483 7.30728 3.13638
RightFoot  12.0641 0.382348 -1.43596
RightToes  -2.08645e-008 3.77894e-005 6.81332e-007
Spine  0.236282 -8.8744 -14.8781
Spine1  7.27494 -12.8417 16.9671
HEad  -21.3193 0.770342 11.4968
LeftShoulder1  7.97064 -13.6814 -40.1703
LeftArm  2.82596 19.5978 -26.7951
LeftForeArm  171.665 -63.0325 -160.798
LeftHand  -0.16507 -2.65584 2.59848
RightShoulder  4.24179 6.88432 34.934
RightArm  18.367 -35.1642 18.7942
RightForeArm  90.3027 80.2144 81.1936
RightHand  0.123724 8.93837 0.606074
LeftUpLeg  5.83058 8.00695 8.92489
LeftLeg  34.5253 14.2869 10.6897
LeftFoot  2.10049 1.21792 -10.2322
LeftToes  1.24767e-006 1.47042e-008 1.32732e-009
114
root  7.60993 38.8738 36.928 -1.60583 1.43039 -1.02124
RightUpLeg  -25.2341 4.50947 -4.11917
RightLeg  23.4145 4.72312 2.02359
RightFoot  9.75082 0.0308824 0.188703
RightToes  -2.08645e-008 3.77894e-005 6.81332e-007
Spine  3.25848 -10.7203 -20.5189
Spine1  1.16881 -15.3233 23.7058
HEad  -21.1557 5.32961 10.8278
LeftShoulder1  7.54907 -13.2969 -38.7875
LeftArm  5.96429 13.9313 -29.1799
LeftForeArm  171.02 -63.6865 -160.208
LeftHand  -0.15337 -2.96341 2.36201
RightShoulder  4.23388 6.89093 34.8332
RightArm  12.1311 -40.4304 21.3187
RightForeArm  104.165 80.2487 95.7794
RightHand  0.0835512 8.86347 0.286926
LeftUpLeg  7.71336 5.53167 10.6878
LeftLeg  31.8684 13.1464 9.01035
LeftFoot  -2.5133 1.16784 -14.6658
LeftToes  1.24767e-006 1.47042e-008 1.32732e-009
115
root  8.15332 37.8013 35.0718 1.03491 10.1406 -0.637268
RightUpLeg  -29.1889 1.64646 -8.19559
RightLeg  23.6949 0.744725 0.141315
RightFoot  6.82345 -0.315635 2.26679
RightToes  -2.08645e-008 3.77894e-005 6.81332e-007
Spine  7.396 -10.7918 -22.004
Spine1  -2.23272 -15.5169 24.9031
HEad  -25.746 4.56417 10.3254
LeftShoulder1  7.42795 -13.2209 -38.2945
LeftArm  9.79844 2.94734 -30.5213
LeftForeArm  168.076 -64.9049 -158.842
LeftHand  -0.18335 -3.35164 2.68194
RightShoulder  4.2805 6.9382 35.0913
RightArm  3.51763 -43.2895 27.0933
RightForeArm  118.747 79.462 112.077
RightHand  0.0702775 8.76797 0.18442
LeftUpLeg  7.87212 0.584628 11.1249
LeftLeg  28.4622 9.98897 6.16205
LeftFoot  -13.4154 -0.357053 -23.8101
LeftToes  1.24767e-006 1.47042e-008 1.32732e-009
116
root  8.71962 36.758 32.8831 2.35718 17.0748 0.973328
RightUpLeg  -32.6986 0.955634 -13.8759
RightLeg  25.7745 -5.03449 -2.88301
RightFoot  7.19273 -0.647555 4.27477
RightToes  -2.08645e-008 3.77894e-005 6.81332e-007
Spine  10.5981 -8.51122 -20.7536
Spine1  -1.38283 -13.4331 21.3693
HEad  -34.0234 -0.340881 10.2996
LeftShoulder1  8.25732 -14.0213 -40.8554
LeftArm  12.8713 -12.2509 -30.6656
LeftForeArm  165.135 -68.1981 -155.023
LeftHand  -0.198849 -3.7252 2.79584
RightShoulder  4.45022 7.06103 36.1999
RightArm  -2.79655 -40.0735 31.4335
RightForeArm  122.617 78.9115 117.576
RightHand  -0.239377 8.74031 -2.34714
LeftUpLeg  4.01883 -3.94525 8.85312
LeftLeg  29.0105 6.78217 4.39496
LeftFoot  -25.4712 -3.04086 -25.7009
LeftToes  1.24767e-006 1.47042e-008 1.32732e-009
117
root  9.06105 36.075 30.8908 2.27832 20.8073 2.5545
RightUpLeg  -35.6767 3.49371 -19.4362
RightLeg  28.8537 -8.89445 -5.47855
RightFoot  10.7269 -0.279142 1.87
RightToes  -2.08645e-008 3.77894e-005 6.81332e-007
Spine  13.3176 -5.30598 -17.3449
Spine1  0.652121 -9.70009 15.1504
HEad  -40.6506 -5.65264 10.0306
LeftShoulder1  8.88913 -14.5622 -42.8143
LeftArm  15.162 -20.5012 -33.1894
LeftForeArm  163.018 -72.2399 -148.894
LeftHand  -0.179214 -4.40084 2.41328
RightShoulder  4.47696 7.09278 36.3233
RightArm  -1.64892 -32.9524 31.0377
RightForeArm  113.106 79.6387 108.016
RightHand  -0.306151 9.06973 -2.85428
LeftUpLeg  -2.01087 -5.83967 5.81954
LeftLeg  35.1426 5.79733 4.75956
LeftFoot  -31.2588 -3.55688 -21.0685
LeftToes  1.24767e-006 1.47042e-008 1.32732e-009
